<?xml version="1.0" encoding="utf-8"?>
<!-- Generator: Adobe Illustrator 19.0.0, SVG Export Plug-In . SVG Version: 6.00 Build 0)  -->
<svg version="1.1" id="Layer_1" xmlns="http://www.w3.org/2000/svg" xmlns:xlink="http://www.w3.org/1999/xlink" x="0px" y="0px"
	 viewBox="0 0 160 45" style="enable-background:new 0 0 160 45;" xml:space="preserve">
<style type="text/css">
	.st0{fill:#515B62;}
	.st1{fill:#EF4169;}
</style>
<path id="XMLID_9_" class="st0" d="M35.1,32.7c0,0.8-0.2,1.2-1,1.2h-3.6c-0.9,0-1.1-0.5-1.2-1.5l-0.6-18.3h-0.1L20.9,33
	c-0.3,0.7-0.7,0.8-1.2,0.8h-1.6c-0.7,0-1.1-0.1-1.4-0.9L8.2,14H8.1L7.7,32.6c0,1-0.4,1.1-1.2,1.1H3.4c-0.9,0-1.2-0.3-1.2-1.2L3.4,4
	c0-0.9,0.4-1.2,1.1-1.2h2.7c0.9,0,1.2,0.3,1.5,1L19,26h0.1l9.5-22.2c0.3-0.7,0.6-1,1.4-1h2.7c0.7,0,1,0.3,1,1L35.1,32.7z M58.3,12.7
	c0,0.1,0,0.3-0.1,0.5l-8.9,23.3c-2,5.4-4.5,7.2-9.9,7.2c-0.9,0-1.6,0-2.4-0.2c-0.5-0.1-0.7-0.4-0.7-0.8c0-0.1,0-0.2,0-0.4l0.3-2.3
	c0.1-0.6,0.3-0.8,0.8-0.8h0.3c0.5,0,1.1,0.1,1.5,0.1c2.8,0,4-1,4.9-3.1l0.9-2l-8.2-21.1c0-0.1-0.1-0.2-0.1-0.4
	c0-0.4,0.3-0.6,0.7-0.6h4.3c0.6,0,0.9,0.3,1.1,0.8l5,14.9l4.7-14.6c0.2-0.7,0.6-1,1.4-1h3.6C58,12.1,58.3,12.3,58.3,12.7z"/>
<path id="XMLID_2_" class="st1" d="M78.7,14.6l-0.9-3.3c0,0-1.8-0.6-4.3-0.6c-4.1,0-6.3,3-6.3,9.3c0,6.2,2.4,8.8,6.5,8.8
	c2,0,4.2-0.7,4.2-0.7v-4.8L75,22.4v-3.1l10.9-0.2v3.3l-2.6,0.9v7.8c0,0-3.9,2.5-10.3,2.5c-7.7,0-12.2-4.6-12.2-13.5
	s5-14.3,12.8-14.3c4.6,0,8.9,1.8,8.9,1.8l-0.2,6.8C82.2,14.6,78.7,14.6,78.7,14.6z M109.7,24.2H97c0.2,3,2,4.8,4.6,4.8
	c3.2,0,6.4-1.8,6.4-1.8l1.6,3.2c0,0-3.8,3.2-8.7,3.2c-6.5,0-9.9-3.8-9.9-10.3c0-6.7,3.8-11,10.1-11c5.7,0,8.6,3.5,8.6,8.9
	C109.9,22.7,109.7,24.1,109.7,24.2L109.7,24.2z M97.1,20.7h6.9c0-2.2-0.9-3.8-3.1-3.8C98.7,16.9,97.4,18.5,97.1,20.7z M128.1,33.3
	l-0.7-2.5c0,0-2.9,2.8-6.2,2.8c-3.7,0-5.9-2.2-5.9-6c0-4.5,3.4-6.3,9.2-6.3h2.7v-2.1c0-1.9-1-2.8-2.9-2.8S121,17,121,17l-0.6,2.4
	H117l-0.3-5.6c0,0,4.6-1.5,8.2-1.5c5.8,0,8,2,8,7.5v9.4l2.9,0.7v3L128.1,33.3z M127.2,24.6H125c-3,0-4.1,0.8-4.1,2.5
	c0,1.4,0.8,2.3,2.2,2.3c2,0,4.1-2.2,4.1-2.2V24.6z M148.6,12.7l0.3,2.6c0,0,2.7-3,5.3-3c2.1,0,3.5,0.7,3.5,0.7l-0.3,7.3H154
	l-0.6-3.2c-2.2,0-4.1,2.1-4.1,2.1v10l3.8,0.9v3h-12.5v-3l3-0.9V16.9l-3-1v-3L148.6,12.7z"/>
</svg>
