<?xml version="1.0" encoding="utf-8"?>
<!-- Generator: Adobe Illustrator 19.0.0, SVG Export Plug-In . SVG Version: 6.00 Build 0)  -->
<svg version="1.1" id="Capa_1" xmlns="http://www.w3.org/2000/svg" xmlns:xlink="http://www.w3.org/1999/xlink" x="0px" y="0px"
	 viewBox="-867 449 184 184" style="enable-background:new -867 449 184 184;" xml:space="preserve">
<style type="text/css">
	.st0{fill:#FFFFFF;}
</style>
<g>
	<path class="st0" d="M-706.3,473.6h-137.5c-12.8,0-23.3,10.4-23.3,23.3v88.3c0,12.8,10.4,23.3,23.3,23.3h137.5
		c12.8,0,23.3-10.4,23.3-23.3v-88.3C-683,484-693.4,473.6-706.3,473.6z M-709.9,488.6l-65.1,50.3l-65.1-50.3H-709.9z M-706.3,593.4
		h-137.5c-4.6,0-8.3-3.7-8.3-8.3v-86.8l72.4,55.9c1.4,1,3,1.6,4.6,1.6s3.2-0.5,4.6-1.6l72.4-55.9v86.8
		C-698,589.7-701.7,593.4-706.3,593.4z"/>
</g>
</svg>
