<?xml version="1.0" encoding="utf-8"?>
<!-- Generator: Adobe Illustrator 19.0.0, SVG Export Plug-In . SVG Version: 6.00 Build 0)  -->
<svg version="1.1" id="Capa_1" xmlns="http://www.w3.org/2000/svg" xmlns:xlink="http://www.w3.org/1999/xlink" x="0px" y="0px"
	 viewBox="-703 285 512 512" style="enable-background:new -703 285 512 512;" xml:space="preserve">
<style type="text/css">
	.st0{fill:#FFFFFF;}
</style>
<g>
	<g>
		<path class="st0" d="M-204.2,662.6l-63.6-63.6c-17.5-17.5-46.1-17.5-63.6,0l-28.9,28.9c-13.3,13.3-34.9,13.3-48.2,0L-534,502.4
			c-13.3-13.3-13.3-34.9,0-48.2c4.7-4.7,18-18,28.9-28.9c17.5-17.5,17.7-45.9,0-63.7l-63.6-63.4c-17.5-17.5-46.1-17.5-63.6,0
			c-13.1,13-17.3,17.2-23.2,23c-63.3,63.3-63.3,166.2,0,229.5l198.7,198.8c63.4,63.4,166.1,63.4,229.5,0l23.1-23.1
			C-186.6,708.7-186.6,680.2-204.2,662.6z M-611.2,319.4c5.8-5.8,15.4-5.8,21.2,0l63.6,63.4c5.9,5.9,5.9,15.4,0,21.2l-10.6,10.6
			l-84.8-84.8L-611.2,319.4z M-435.6,728.2l-198.7-198.8c-49-49-51.6-125.8-8.3-178L-558,436c-22.2,25.2-21.3,63.6,2.8,87.7
			l125.4,125.5c0,0,0,0,0,0c24.1,24.1,62.4,25,87.7,2.8l84.6,84.6C-309.6,779.8-386.3,777.5-435.6,728.2z M-225.4,705.1l-10.6,10.6
			l-84.9-84.9l10.6-10.6c5.9-5.8,15.4-5.9,21.2,0l63.6,63.6C-219.5,689.7-219.5,699.2-225.4,705.1z"/>
	</g>
</g>
</svg>
